<?xml version="1.0" encoding="utf-8"?>
<!-- Generator: Adobe Illustrator 19.2.1, SVG Export Plug-In . SVG Version: 6.00 Build 0)  -->
<svg version="1.1" id="Layer_1" xmlns="http://www.w3.org/2000/svg" xmlns:xlink="http://www.w3.org/1999/xlink" x="0px" y="0px"
	 viewBox="0 0 36.004 150" style="enable-background:new 0 0 36.004 150;" xml:space="preserve">
<style type="text/css">
	.st0{display:none;fill:none;stroke:#FFFFFF;stroke-width:2;stroke-linecap:round;stroke-miterlimit:10;}
	.st1{fill:#A2F1FF;}
	.st2{fill:#FF868A;}
	.st3{fill:#FFFFFF;}
	.st4{fill:#58595B;}
	.st5{fill:#E5E6E7;}
	.st6{fill:#A3D3E3;}
	.st7{fill:#DD797F;}
	.st8{fill:#6D6E71;}
	.st9{fill:#4A4A4B;}
	.st10{fill:#414042;}
	.st11{fill:#E75C54;}
	.st12{fill:#FFE336;}
	.st13{fill:#56C681;}
	.st14{fill:#F37970;}
	.st15{fill:#FFEE85;}
	.st16{fill:#79D29B;}
	.st17{fill:#C44242;}
	.st18{fill:#FFBC13;}
	.st19{fill:#3AAB64;}
	.st20{fill:#4E4D4F;}
	.st21{fill:#63CF83;}
	.st22{fill:#FFE77A;}
	.st23{fill:#4FC37B;}
	.st24{fill:#FCDA71;}
	.st25{fill:#F0F1F1;}
	.st26{fill:#E38026;}
	.st27{fill:#BBBDBF;}
	.st28{fill:#7CC9B4;}
	.st29{fill:#8BDBC7;}
	.st30{fill:#3EBDA4;}
	.st31{fill:#4E706E;}
	.st32{fill:#3EAD95;}
	.st33{fill:#BA9C44;}
	.st34{fill:#B0933E;}
	.st35{fill:#F2C84C;}
	.st36{fill:#3A3A3B;}
	.st37{fill:#EF5E90;}
	.st38{fill:#363637;}
	.st39{fill:#A87C50;}
	.st40{fill:#594A42;}
	.st41{fill:#FFFDE7;}
	.st42{fill:#CAA94C;}
	.st43{fill:#D0D2D3;}
	.st44{fill:#8F6A44;}
	.st45{fill:#483B34;}
	.st46{fill:#AE923D;}
	.st47{fill:#D9D9CA;}
	.st48{fill:#BB3D45;}
	.st49{fill:#42362F;}
	.st50{fill:#10CD88;}
	.st51{fill:#166BFF;}
	.st52{fill:#FDEA41;}
	.st53{fill:#FDE140;}
	.st54{fill:#FDCF3E;}
	.st55{fill:#FFB13F;}
	.st56{fill:#FFE65D;}
	.st57{fill:#FF8432;}
	.st58{fill:#3B4B92;}
	.st59{fill:#69CA6D;}
	.st60{fill:#54C16D;}
	.st61{fill:#32A373;}
	.st62{fill:#00D869;}
	.st63{fill:#00AB65;}
	.st64{fill:#00912A;}
	.st65{fill:#D6AF67;}
	.st66{fill:#8F8056;}
	.st67{fill:#4C4D4F;}
	.st68{fill:#B19254;}
	.st69{fill:#56585A;}
	.st70{fill:#7E724C;}
	.st71{fill:#1A8200;}
	.st72{fill:#2F6000;}
	.st73{fill:#053100;}
	.st74{fill:#092400;}
	.st75{fill:#011200;}
	.st76{fill:#788BD0;}
	.st77{fill:#2E2A2B;}
	.st78{fill:#393435;}
	.st79{fill:#231F20;}
	.st80{fill:#FFA323;}
	.st81{fill:#FFB124;}
	.st82{fill:#FF8F19;}
	.st83{fill:#76B620;}
	.st84{fill:#9CBE47;}
	.st85{fill:#F9DF37;}
	.st86{fill:#F9CC37;}
	.st87{fill:#7C9C47;}
	.st88{fill:#807947;}
	.st89{fill:#C6A66C;}
	.st90{fill:#B89B65;}
	.st91{fill:#493C35;}
	.st92{fill:#FFFFE8;}
	.st93{fill:#FFF8D6;}
	.st94{fill:#603913;}
	.st95{fill:#4C4B4D;}
	.st96{fill:#E4E5E6;}
	.st97{fill:#6C6D6F;}
	.st98{fill:#93DBAE;}
	.st99{fill:#EFF0F0;}
	.st100{fill:#CFD1D2;}
	.st101{fill:#FFE98C;}
	.st102{fill:#FFD76C;}
	.st103{fill:#8C97D8;}
	.st104{fill:#1CC7C7;}
	.st105{fill:#CC66B6;}
	.st106{fill:#CD7EC5;}
	.st107{fill:#E598D9;}
	.st108{fill:#A5A7AA;}
	.st109{fill:#D281C2;}
	.st110{fill:#B859A0;}
	.st111{fill:#BD73BB;}
	.st112{fill:#BABCBE;}
	.st113{fill:#646467;}
	.st114{fill:#7385C6;}
	.st115{fill:#F92322;}
	.st116{fill:#919396;}
</style>
<g>
	<g>
		<path class="st116" d="M35.004,111.75v23.61c0,2.23-1.26,4.27-3.25,5.27L18.004,149l-13.75-8.37c-1.99-1-3.25-3.04-3.25-5.27
			v-23.61c0-2.07,1.68-3.75,3.75-3.75h10.25h6h10.25C33.324,108,35.004,109.68,35.004,111.75z"/>
		<polygon class="st116" points="21.004,22 21.004,108 15.004,108 15.004,22 15.204,21.6 18.004,23 20.804,21.6 		"/>
		<path class="st116" d="M28.004,2.87V6h-20V2.87c0-1.03,0.84-1.87,1.87-1.87h16.26C27.164,1,28.004,1.84,28.004,2.87z"/>
		<path class="st108" d="M11.128,139.159c-3.184-1.963-5.123-5.437-5.123-9.178V109.75c0-0.318,0.043-0.624,0.121-0.917
			C6.237,108.416,5.957,108,5.525,108H5.388c-2.421,0-4.383,1.963-4.383,4.383v22.977c0,2.23,1.26,4.27,3.25,5.27l13.421,8.17
			c0.202,0.123,0.456,0.123,0.659,0l3.469-1.977c0.399-0.243,0.407-0.819,0.015-1.073L11.128,139.159z"/>
		<g>
			<polygon class="st112" points="21.004,22 20.804,21.6 20.504,21.75 			"/>
			<polyline class="st112" points="18.004,107 18.004,23 15.204,21.6 15.004,22 15.004,108 18.004,108 			"/>
		</g>
		<path class="st112" d="M15.874,1h-6c-1.03,0-1.87,0.84-1.87,1.87V6h6V2.87C14.004,1.84,14.844,1,15.874,1z"/>
		<path class="st108" d="M24.881,139.159c3.184-1.963,5.123-5.437,5.123-9.178V109.75c0-0.318-0.043-0.624-0.121-0.917
			c-0.112-0.418,0.169-0.833,0.601-0.833h0.137c2.421,0,4.383,1.963,4.383,4.383v22.977c0,2.23-1.26,4.27-3.25,5.27l-13.421,8.17
			c-0.202,0.123-0.456,0.123-0.659,0l-3.469-1.977c-0.399-0.243-0.407-0.819-0.015-1.073L24.881,139.159z"/>
	</g>
	<g>
		<path class="st4" d="M13.576,139.146l-4.78-2.914c-0.906-0.445-1.491-1.393-1.491-2.412V132c0-0.553-0.447-1-1-1s-1,0.447-1,1
			v1.82c0,1.775,1.023,3.427,2.528,4.163l4.7,2.87c0.163,0.1,0.343,0.146,0.521,0.146c0.337,0,0.666-0.17,0.854-0.479
			C14.196,140.05,14.046,139.435,13.576,139.146z"/>
		<path class="st4" d="M31.254,107h-9.25V22.116l4.817-2.411c1.347-0.673,2.183-2.024,2.183-3.524V2.87
			c0-1.583-1.287-2.87-2.87-2.87H9.875c-1.583,0-2.87,1.288-2.87,2.87v13.31c0,1.5,0.836,2.851,2.182,3.524l4.818,2.412V107h-9.25
			c-2.619,0-4.75,2.131-4.75,4.75v23.61c0,2.623,1.456,4.985,3.73,6.124l13.75,8.37c0.159,0.097,0.34,0.146,0.52,0.146
			s0.36-0.049,0.52-0.146l13.68-8.331c2.345-1.178,3.801-3.54,3.801-6.163v-23.61C36.004,109.131,33.874,107,31.254,107z M9.875,2
			h16.26c0.479,0,0.87,0.39,0.87,0.87V5h-18V2.87C9.004,2.39,9.395,2,9.875,2z M9.004,16.18V7h18v9.18
			c0,0.738-0.413,1.403-1.078,1.736l-7.922,3.966l-7.923-3.966C9.417,17.584,9.004,16.918,9.004,16.18z M17.557,23.895
			C17.698,23.965,17.851,24,18.004,24s0.307-0.035,0.447-0.105l1.553-0.777V107h-4V23.117L17.557,23.895z M34.004,135.36
			c0,1.862-1.034,3.539-2.77,4.415l-13.23,8.054l-13.301-8.093c-1.665-0.837-2.699-2.514-2.699-4.376v-23.61
			c0-1.517,1.233-2.75,2.75-2.75h10.25h6h10.25c1.517,0,2.75,1.233,2.75,2.75V135.36z"/>
		<path class="st4" d="M29.705,131c-0.553,0-1,0.447-1,1v1.82c0,1.02-0.586,1.967-1.572,2.456l-4.699,2.87
			c-0.471,0.288-0.62,0.903-0.332,1.375C22.29,140.83,22.619,141,22.956,141c0.178,0,0.357-0.047,0.521-0.146l4.619-2.826
			c1.585-0.78,2.609-2.431,2.609-4.207V132C30.705,131.447,30.257,131,29.705,131z"/>
	</g>
</g>
</svg>
