<?xml version="1.0" encoding="utf-8"?>
<!-- Generator: Adobe Illustrator 19.2.1, SVG Export Plug-In . SVG Version: 6.00 Build 0)  -->
<svg version="1.1" id="Layer_1" xmlns="http://www.w3.org/2000/svg" xmlns:xlink="http://www.w3.org/1999/xlink" x="0px" y="0px"
	 viewBox="0 0 42.09 150" style="enable-background:new 0 0 42.09 150;" xml:space="preserve">
<style type="text/css">
	.st0{display:none;fill:none;stroke:#FFFFFF;stroke-width:2;stroke-linecap:round;stroke-miterlimit:10;}
	.st1{fill:#D5D2E4;}
	.st2{fill:#43324E;}
	.st3{fill:#FFFFFF;}
	.st4{fill:#ECEDED;}
	.st5{fill:#E1E2E3;}
	.st6{fill:url(#SVGID_1_);}
	.st7{fill:url(#SVGID_2_);}
	.st8{fill:#414042;}
	.st9{fill:#96806A;}
	.st10{fill:#EDDFC7;}
	.st11{fill:#594A42;}
	.st12{fill:#E81C24;}
	.st13{fill:#00ADFF;}
	.st14{fill:#FFDFD7;}
	.st15{fill:#A63E45;}
	.st16{fill:#328BE7;}
	.st17{fill:#49CA8F;}
	.st18{fill:#58595B;}
	.st19{fill:#FF8BA5;}
	.st20{fill:#EFF0F0;}
	.st21{fill:#978278;}
	.st22{fill:#CED0D1;}
	.st23{fill:#FFC877;}
	.st24{fill:#6866A4;}
	.st25{fill:#A0DEFF;}
	.st26{fill:#FF4E00;}
	.st27{fill:#0068A8;}
	.st28{fill:#21405D;}
</style>
<g id="XMLID_5_">
	<g>
		<path class="st25" d="M41.1,2.566c0,0.12-0.01,0.23-0.04,0.35c-0.16,0.79-0.57,1.56-1.18,2.41s-1.42,1.77-2.37,2.87
			c-1.83,2.1-4.2,4.65-6.13,7.55c-0.79,1.19-1.51,2.43-2.08,3.73c-1.23,2.75-1.83,5.74-1.18,8.9l2.79,13.92l-0.39,0.08
			C18.78,47.346,9,58.126,3.12,72.166v-4.5c0-6.17,0.61-12.34,1.83-18.4l4.17-20.89c0.21-1.15,0.26-2.5,0.17-3.15
			c-0.49-3.56-3.54-7.46-7.09-7.36c2.78-0.22,10.29-2.68,18.89-6.25c10.59-4.42,18.78-9.08,18.33-10.17
			c-0.13-0.32-1.03-0.29-2.49,0.03c2.66-0.73,3.57-0.5,4.01,0.36C41.04,2.066,41.1,2.316,41.1,2.566z"/>
		<path class="st26" d="M39.42,1.446c0.45,1.09-7.74,5.75-18.33,10.17c-8.6,3.57-16.11,6.03-18.89,6.25c-0.02,0-0.04,0-0.06,0
			c-0.61,0.05-0.98-0.02-1.06-0.22c-0.45-1.09,7.77-5.55,18.37-9.97c7.42-3.09,14.02-5.44,17.47-6.2h0.01
			C38.39,1.156,39.29,1.126,39.42,1.446z"/>
		<path class="st25" d="M37.71,32.726c0.53,1.43,0.28,2.84-0.55,3.15c-0.11,0.04-0.22,0.06-0.34,0.06c-0.77,0-1.67-0.85-2.13-2.09
			l-5.32-14.34l-0.07-0.03c0.57-1.3,1.29-2.54,2.08-3.73l0.03,0.02L37.71,32.726z"/>
		<path class="st26" d="M34.12,144.986v0.62c0,1.8-6.94,3.26-15.5,3.26s-15.5-1.46-15.5-3.26v-0.62v-40.31h1.02h29.98V144.986z"/>
		<path class="st27" d="M34.12,84.376v20.3H4.14H3.12v-20.3h1.02h5l0.58-0.22c1.33,3.63,4.82,6.22,8.92,6.22
			c4.03,0,7.48-2.51,8.85-6.05l0.13,0.05H34.12z"/>
		<path class="st3" d="M34.12,67.666v16.71h-6.5l-0.13-0.05c0.42-1.07,0.65-2.24,0.65-3.45c0-5.24-4.25-9.5-9.5-9.5
			s-9.5,4.26-9.5,9.5c0,1.15,0.2,2.25,0.58,3.28l-0.58,0.22h-5H3.12v-12.21c5.88-14.04,15.66-24.82,27.4-29.79l0.39-0.08l1.39,6.97
			C33.51,55.326,34.12,61.496,34.12,67.666z"/>
		<path class="st3" d="M28.14,80.876c0,1.21-0.23,2.38-0.65,3.45c-1.37,3.54-4.82,6.05-8.85,6.05c-4.1,0-7.59-2.59-8.92-6.22
			c-0.38-1.03-0.58-2.13-0.58-3.28c0-5.24,4.25-9.5,9.5-9.5S28.14,75.636,28.14,80.876z"/>
	</g>
</g>
<path class="st28" d="M41.83,1.38c-0.938-1.83-3.115-1.426-5.1-0.885c-0.008,0.002-0.017,0.003-0.025,0.005
	c-3.489,0.769-10.083,3.106-17.64,6.254C-1.039,15.136-0.171,17.237,0.151,18.018c0.3,0.75,1.106,0.867,1.619,0.867
	c0.159,0,0.29-0.011,0.369-0.019H2.2c0.008,0,0.017-0.001,0.025-0.001c0.001,0,0.002,0,0.003,0c2.941-0.082,5.64,3.361,6.071,6.497
	c0.073,0.53,0.031,1.76-0.162,2.826L3.97,49.069c-1.228,6.098-1.85,12.355-1.85,18.597v4.296l-0.007,0.016
	c-0.115,0.265-0.101,0.55,0.007,0.796v72.212c0,0.11,0.03,0.211,0.063,0.31c-0.033,0.099-0.063,0.2-0.063,0.31
	c0,4.141,14.812,4.26,16.5,4.26s16.5-0.119,16.5-4.26c0-0.11-0.03-0.211-0.062-0.31c0.033-0.099,0.062-0.2,0.062-0.31v-40.261
	c0.001-0.017,0.01-0.032,0.01-0.049c0-0.017-0.009-0.031-0.01-0.048V84.425c0.001-0.017,0.01-0.032,0.01-0.049
	c0-0.017-0.009-0.031-0.01-0.048V67.666c0-6.225-0.619-12.482-1.84-18.595l-4.18-20.891c0-0.001-0.001-0.001-0.001-0.002
	c0-0.001,0-0.002,0-0.003c-0.394-1.915-0.311-3.852,0.243-5.867l4.41,11.887c0.608,1.64,1.841,2.742,3.067,2.742
	c0.235,0,0.458-0.039,0.689-0.123c1.394-0.521,1.882-2.427,1.138-4.435l-6.131-16.506c1.521-2.207,3.271-4.207,4.832-5.978
	l1.208-1.38c0.839-0.969,1.563-1.807,2.136-2.605c0.753-1.049,1.169-1.911,1.34-2.756C42.078,2.964,42.1,2.777,42.1,2.566
	C42.1,2.188,42.018,1.809,41.83,1.38z M19.835,8.6c7.414-3.088,13.854-5.378,17.247-6.135c0.019-0.003,0.037-0.006,0.055-0.01
	c-2.523,1.741-8.344,4.863-16.431,8.238c-7.191,2.985-13.923,5.299-17.316,5.984C5.903,15.011,11.644,12.015,19.835,8.6z
	 M9.14,85.376c0.004,0,0.008-0.002,0.012-0.003c1.719,3.625,5.417,6.003,9.488,6.003c4.052,0,7.773-2.385,9.485-6h4.995v18.3H4.14
	c-0.007,0-0.013,0.004-0.02,0.004V85.372c0.007,0,0.013,0.004,0.02,0.004H9.14z M26.558,83.965
	c-1.253,3.236-4.435,5.411-7.918,5.411c-3.555,0-6.762-2.236-7.981-5.563c0-0.001,0-0.002,0-0.002
	c-0.344-0.933-0.519-1.92-0.519-2.935c0-4.687,3.813-8.5,8.5-8.5s8.5,3.813,8.5,8.5C27.14,81.941,26.944,82.979,26.558,83.965z
	 M18.62,147.866c-8.704,0-13.936-1.481-14.503-2.334c-0.006-0.081-0.037-0.153-0.061-0.228c0.034-0.101,0.064-0.205,0.064-0.318
	v-39.315c0.007,0,0.013,0.004,0.02,0.004h28.98v39.311c0,0.113,0.03,0.217,0.064,0.318c-0.024,0.075-0.055,0.147-0.061,0.228
	C32.556,146.385,27.324,147.866,18.62,147.866z M33.12,83.376h-4.293c0.2-0.814,0.312-1.649,0.312-2.5c0-5.79-4.71-10.5-10.5-10.5
	s-10.5,4.71-10.5,10.5c0,0.852,0.108,1.687,0.307,2.5H4.14c-0.007,0-0.013,0.004-0.02,0.004V72.378
	c5.744-13.615,14.965-23.774,26.035-28.735l1.164,5.819c1.195,5.985,1.801,12.11,1.801,18.204V83.376z M36.82,34.936
	c-0.188,0-0.817-0.428-1.192-1.438l-5.212-14.048c0.223-0.476,0.472-0.961,0.754-1.458l5.602,15.081
	C37.161,34.123,36.929,34.854,36.82,34.936z M40.08,2.717c-0.118,0.584-0.44,1.228-1.013,2.026c-0.52,0.725-1.217,1.53-2.023,2.462
	l-1.195,1.365c-1.706,1.934-3.641,4.126-5.302,6.622c-0.912,1.374-1.62,2.644-2.16,3.875c-1.454,3.254-1.874,6.451-1.247,9.504
	c0,0,0,0,0,0.001l0.001,0.003c0,0.001,0,0.002,0,0.003c0,0,0,0,0,0l2.611,13.05c-10.595,4.61-19.565,13.737-25.631,25.97
	c0.005-6.088,0.613-12.189,1.81-18.137l4.17-20.89c0.001-0.003-0.001-0.005,0-0.008c0.001-0.003,0.002-0.005,0.003-0.008
	c0.213-1.166,0.289-2.656,0.177-3.466c-0.364-2.642-2.014-5.443-4.278-6.999c3.813-1.042,9.428-3.043,15.472-5.551
	c5.065-2.114,9.827-4.381,13.408-6.384c3.156-1.765,4.603-2.859,5.205-3.639c0.001,0.016,0.011,0.034,0.011,0.05
	C40.1,2.624,40.096,2.652,40.08,2.717z"/>
</svg>
