<?xml version="1.0" encoding="utf-8"?>
<!-- Generator: Adobe Illustrator 21.0.0, SVG Export Plug-In . SVG Version: 6.00 Build 0)  -->
<svg version="1.1" id="Layer_1" xmlns="http://www.w3.org/2000/svg" xmlns:xlink="http://www.w3.org/1999/xlink" x="0px" y="0px"
	 viewBox="0 0 95 150" style="enable-background:new 0 0 95 150;" xml:space="preserve">
<style type="text/css">
	.st0{fill:#5BAF5D;}
	.st1{fill:#66C468;}
	.st2{fill:#76E378;}
	.st3{fill:#4D944F;}
	.st4{fill:#9AC4F0;}
	.st5{fill:#E0E1E2;}
	.st6{fill:#958079;}
	.st7{fill:#444B52;}
	.st8{fill:#6D6E71;}
	.st9{fill:#8D8F92;}
	.st10{fill:#855E3C;}
	.st11{fill:#A37C50;}
	.st12{fill:#805E3A;}
	.st13{fill:#6C4A30;}
	.st14{fill:#FFFFFF;}
	.st15{fill:#FCD75F;}
	.st16{fill:#EB5252;}
	.st17{fill:#B09A7D;}
	.st18{fill:#325743;}
	.st19{fill:#8C6645;}
	.st20{fill:#B58A64;}
	.st21{fill:#6E5036;}
	.st22{fill:#52351C;}
	.st23{fill:#D1D3D4;}
	.st24{fill:#6B6A6E;}
	.st25{fill:#68696B;}
	.st26{fill:#757578;}
	.st27{fill:#737476;}
	.st28{fill:#F1F2F2;}
	.st29{fill:#BABCBD;}
	.st30{fill:#38B077;}
	.st31{fill:#40A7FF;}
	.st32{fill:#4081FF;}
	.st33{fill:#4B5582;}
	.st34{fill:#3ECFCF;}
	.st35{fill:#89E2E2;}
	.st36{fill:#FF84C1;}
	.st37{fill:#FFB3D1;}
	.st38{fill:#FF99C1;}
	.st39{fill:#FFC642;}
	.st40{fill:#14E398;}
	.st41{fill:#FF91F6;}
	.st42{fill:#6BFFC9;}
	.st43{fill:#FF6BF3;}
	.st44{fill:#FFD67D;}
	.st45{fill:#425B80;}
	.st46{fill:#F2AC32;}
	.st47{fill:#F268EB;}
	.st48{fill:#00A7E8;}
	.st49{fill:#C7A983;}
	.st50{fill:#AD895D;}
	.st51{fill:#5E5755;}
	.st52{fill:#F24129;}
	.st53{fill:#C73522;}
	.st54{fill:#423E3A;}
	.st55{fill:#CC2121;}
	.st56{fill:#E0E0E0;}
	.st57{fill:#A31A1A;}
	.st58{fill:#2E292A;}
	.st59{fill:#EBEBEB;}
	.st60{fill:#58595B;}
	.st61{fill:#D2D3D4;}
	.st62{fill:#AFB1B5;}
	.st63{fill:#4CE637;}
	.st64{fill:#F03E3E;}
	.st65{fill:#DADADB;}
	.st66{opacity:0.3;}
	.st67{fill:#DFE0E1;}
	.st68{fill:#2CD4F5;}
	.st69{fill:#1BCDF0;}
	.st70{fill:none;stroke:#2CD4F5;stroke-width:4;stroke-linecap:round;stroke-miterlimit:10;}
	.st71{fill:#373F61;}
	.st72{opacity:0.2;}
	.st73{fill:#73DEEF;}
	.st74{fill:#DCA0FF;}
	.st75{fill:#D78DFF;}
	.st76{fill:#DC92FF;}
	.st77{fill:#73D0E4;}
	.st78{fill:#726097;}
	.st79{fill:#FF82A0;}
	.st80{fill:#E6E6E6;}
	.st81{fill:#FF5C83;}
	.st82{fill:#D4335B;}
	.st83{fill:#A0A2A5;}
	.st84{fill:#436C8C;}
	.st85{fill:#EDEDED;}
	.st86{fill:#2BAF73;}
	.st87{fill:#50DE9D;}
	.st88{fill:#D6D6D6;}
	.st89{fill:#1B8555;}
	.st90{fill:#3B434F;}
</style>
<g>
	<g>
		<circle class="st83" cx="92" cy="18.037" r="2"/>
	</g>
	<g>
		<circle class="st83" cx="3" cy="18.037" r="2"/>
	</g>
	<g>
		<path class="st83" d="M20.67,145.037H24v2c0,1.1-0.9,2-2,2c-0.55,0-1.05-0.22-1.41-0.59c-0.37-0.36-0.59-0.86-0.59-1.41v-2v-0.02
			C20.22,145.027,20.44,145.037,20.67,145.037z"/>
	</g>
	<g>
		<path class="st84" d="M76,145.037v2c0,1.1-0.9,2-2,2c-0.55,0-1.05-0.22-1.41-0.59c-0.37-0.36-0.59-0.86-0.59-1.41v-2h3h0.33
			c0.22,0,0.45-0.01,0.67-0.02V145.037z"/>
	</g>
	<g>
		<path class="st83" d="M9.5,115.037H11h6v3h-7H6.5c0-0.83,0.34-1.58,0.88-2.12S8.67,115.037,9.5,115.037z"/>
	</g>
	<g>
		<path class="st85" d="M86,118.037v16.33c0,5.67-4.42,10.3-10,10.65c-0.22,0.01-0.45,0.02-0.67,0.02H75h-3H24h-3.33
			c-0.23,0-0.45-0.01-0.67-0.02c-5.58-0.35-10-4.98-10-10.65v-16.33h7v14.9c0,1.71,1.39,3.1,3.1,3.1h24.8c1.71,0,3.1-1.39,3.1-3.1
			v-14.9H86z"/>
	</g>
	<g>
		<path class="st83" d="M89.5,118.037H86H48v-3h38.5C88.16,115.037,89.5,116.377,89.5,118.037z"/>
	</g>
	<g>
		<path class="st86" d="M47,21.987h1v39.05v54v3v14.9c0,1.71-1.39,3.1-3.1,3.1H20.1c-1.71,0-3.1-1.39-3.1-3.1v-14.9v-3v-93.05h2h4h4
			h4h4h4h4H47z"/>
	</g>
	<g>
		<path class="st87" d="M47,21.987h-4h-4h-2v39.05v54v3v14.9c0,1.71-1.39,3.1-3.1,3.1h11c1.71,0,3.1-1.39,3.1-3.1v-14.9v-3v-54
			v-39.05H47z"/>
	</g>
	<g>
		<g>
			<path class="st88" d="M28.142,136.037H20.1c-1.71,0-3.1-1.39-3.1-3.1v-14.9h-7v16.33c0,5.67,4.42,10.3,10,10.65
				c0.22,0.01,0.44,0.02,0.67,0.02H24h14.67c-0.23,0-0.45-0.01-0.67-0.02C32.98,144.702,28.911,140.92,28.142,136.037z"/>
		</g>
	</g>
	<g>
		<g>
			<path class="st14" d="M64,118.037v16.33c0,5.67-4.42,10.3-10,10.65c-0.22,0.01-0.45,0.02-0.67,0.02H72h3h0.33
				c0.22,0,0.45-0.01,0.67-0.02c5.58-0.35,10-4.98,10-10.65v-16.33H64z"/>
		</g>
	</g>
	<g>
		<path class="st89" d="M28,132.937v-14.9v-3v-93.05h-1h-4h-4h-2v93.05v3v14.9c0,1.71,1.39,3.1,3.1,3.1h11
			C29.39,136.037,28,134.647,28,132.937z"/>
	</g>
	<g>
		<circle class="st84" cx="92" cy="18.04" r="2"/>
	</g>
	<g>
		<path class="st84" d="M89.5,118.04H86H48v-3h38.5C88.16,115.04,89.5,116.38,89.5,118.04z"/>
	</g>
	<g>
		<path class="st84" d="M24,145.04v2c0,1.1-0.9,2-2,2c-0.55,0-1.05-0.22-1.41-0.59c-0.37-0.36-0.59-0.86-0.59-1.41v-2v-0.02
			c0.22,0.01,0.44,0.02,0.67,0.02H24z"/>
	</g>
	<g>
		<path class="st84" d="M17,115.04v3h-7H6.5c0-0.83,0.34-1.58,0.88-2.12s1.29-0.88,2.12-0.88H11H17z"/>
	</g>
	<g>
		<circle class="st84" cx="3" cy="18.04" r="2"/>
	</g>
	<g>
		<path class="st84" d="M57.471,82.57c-0.379,0-0.74-0.215-0.909-0.581l-9.47-20.53c-0.231-0.501-0.012-1.096,0.489-1.327
			c0.505-0.232,1.097-0.011,1.327,0.489l9.47,20.53c0.231,0.502,0.012,1.096-0.489,1.327C57.753,82.541,57.61,82.57,57.471,82.57z"
			/>
	</g>
	<g>
		<path class="st84" d="M67.151,103.43c-0.378,0-0.738-0.214-0.908-0.579l-4.631-9.97c-0.232-0.501-0.015-1.095,0.486-1.328
			c0.502-0.232,1.096-0.015,1.328,0.486l4.631,9.97c0.232,0.501,0.015,1.095-0.486,1.328C67.436,103.4,67.292,103.43,67.151,103.43z
			"/>
	</g>
	<g>
		<path class="st84" d="M64.571,69.36c-0.378,0-0.739-0.214-0.908-0.579l-8.84-19.05c-0.232-0.501-0.015-1.096,0.486-1.328
			c0.501-0.231,1.097-0.014,1.328,0.486l8.84,19.05c0.232,0.501,0.015,1.096-0.486,1.328C64.855,69.33,64.712,69.36,64.571,69.36z"
			/>
	</g>
	<g>
		<path class="st84" d="M54.041,46.68c-0.378,0-0.739-0.215-0.908-0.58l-1.26-2.72c-0.232-0.501-0.015-1.096,0.487-1.328
			c0.503-0.231,1.096-0.013,1.327,0.487l1.26,2.72c0.232,0.501,0.015,1.096-0.487,1.328C54.324,46.65,54.182,46.68,54.041,46.68z"/>
	</g>
	<g>
		<path class="st84" d="M78.881,100.2c-0.377,0-0.738-0.214-0.908-0.578l-2.11-4.54c-0.232-0.501-0.015-1.096,0.485-1.329
			c0.502-0.234,1.096-0.015,1.329,0.485l2.11,4.54c0.232,0.501,0.015,1.096-0.485,1.329C79.165,100.171,79.021,100.2,78.881,100.2z"
			/>
	</g>
	<g>
		<path class="st84" d="M75.091,92.03c-0.378,0-0.738-0.214-0.908-0.579l-5.05-10.88c-0.232-0.501-0.015-1.096,0.486-1.328
			c0.502-0.233,1.096-0.015,1.328,0.486l5.05,10.88c0.232,0.501,0.015,1.096-0.486,1.328C75.375,92.001,75.231,92.03,75.091,92.03z"
			/>
	</g>
	<g>
		<path class="st84" d="M76.381,109.07c-0.378,0-0.739-0.215-0.908-0.579L68.743,93.98c-0.232-0.501-0.015-1.096,0.486-1.328
			c0.504-0.232,1.097-0.013,1.328,0.486l6.729,14.511c0.232,0.501,0.015,1.096-0.486,1.328
			C76.664,109.041,76.521,109.07,76.381,109.07z"/>
	</g>
	<g>
		<path class="st84" d="M65.861,86.39c-0.378,0-0.738-0.214-0.908-0.579l-7.58-16.319c-0.232-0.501-0.015-1.096,0.486-1.328
			c0.502-0.234,1.096-0.014,1.328,0.485l7.58,16.32c0.232,0.501,0.015,1.095-0.486,1.328C66.146,86.36,66.002,86.39,65.861,86.39z"
			/>
	</g>
	<g>
		<path class="st84" d="M53.231,59.18c-0.378,0-0.738-0.214-0.908-0.579l-5.171-11.14c-0.232-0.501-0.015-1.095,0.486-1.328
			c0.501-0.231,1.096-0.013,1.328,0.486l5.171,11.14c0.232,0.501,0.015,1.095-0.486,1.328C53.516,59.15,53.372,59.18,53.231,59.18z"
			/>
	</g>
	<g>
		<path class="st90" d="M23.93,28.04c-0.553,0-1,0.448-1,1v62c0,0.553,0.447,1,1,1s1-0.447,1-1v-62
			C24.93,28.488,24.482,28.04,23.93,28.04z"/>
		<path class="st90" d="M29,49.04c-0.553,0-1,0.448-1,1v21c0,0.552,0.447,1,1,1s1-0.448,1-1v-21C30,49.488,29.553,49.04,29,49.04z"
			/>
		<path class="st90" d="M37,40.04c-0.553,0-1,0.448-1,1v75c0,0.553,0.447,1,1,1s1-0.447,1-1v-75C38,40.488,37.553,40.04,37,40.04z"
			/>
		<path class="st90" d="M92,15.04c-1.302,0-2.402,0.839-2.816,2H48c0-0.552-0.447-1-1-1s-1,0.448-1,1h-2c0-0.552-0.447-1-1-1
			s-1,0.448-1,1h-2c0-0.552-0.447-1-1-1s-1,0.448-1,1h-2c0-0.552-0.447-1-1-1s-1,0.448-1,1h-2c0-0.552-0.447-1-1-1s-1,0.448-1,1h-2
			c0-0.552-0.447-1-1-1s-1,0.448-1,1h-1v-4.61c0-4.075-3.364-7.39-7.5-7.39c-3.956,0-7.198,3.036-7.473,6.867
			C10.021,11.952,10,11.993,10,12.04v5H6.03c-0.072,0-0.135,0.026-0.202,0.041C5.426,15.898,4.317,15.04,3,15.04
			c-1.654,0-3,1.346-3,3s1.346,3,3,3c1.317,0,2.426-0.858,2.828-2.041c0.067,0.014,0.13,0.041,0.202,0.041H10v95H9.5
			c-1.066,0-2.071,0.416-2.827,1.173c-0.757,0.756-1.173,1.761-1.173,2.827c0,0.553,0.447,1,1,1H9v15.33
			c0,5.826,4.317,10.718,10,11.542v1.128c0,0.812,0.316,1.566,0.873,2.107c0.561,0.576,1.315,0.893,2.127,0.893c1.654,0,3-1.346,3-3
			v-1h46v1c0,0.812,0.316,1.566,0.873,2.107c0.561,0.576,1.315,0.893,2.127,0.893c1.654,0,3-1.346,3-3v-1.127
			c5.677-0.819,10-5.713,10-11.543v-15.33h2.5c0.553,0,1-0.447,1-1c0-2.206-1.794-4-4-4H49V21.99c0-0.552-0.447-1-1-1v-1.95h41.184
			c0.414,1.161,1.514,2,2.816,2c1.654,0,3-1.346,3-3S93.654,15.04,92,15.04z M3,19.04c-0.552,0-1-0.449-1-1s0.448-1,1-1s1,0.449,1,1
			S3.552,19.04,3,19.04z M42,19.04v1.95h-2v-1.95H42z M46.87,22.99c0.044,0.006,0.084,0.025,0.13,0.025V132.94
			c0,1.158-0.941,2.1-2.1,2.1H42.93v-46c0-0.553-0.447-1-1-1s-1,0.447-1,1v46H30v-26c0-0.553-0.447-1-1-1s-1,0.447-1,1v26h-7.9
			c-1.158,0-2.1-0.941-2.1-2.1V22.99h0.87c0.044,0.006,0.084,0.025,0.13,0.025c0.042,0,0.077-0.02,0.118-0.025h3.752
			c0.044,0.006,0.084,0.025,0.13,0.025c0.042,0,0.077-0.02,0.118-0.025h3.752c0.044,0.006,0.084,0.025,0.13,0.025
			c0.042,0,0.077-0.02,0.118-0.025h3.752c0.044,0.006,0.084,0.025,0.13,0.025c0.042,0,0.077-0.02,0.118-0.025h3.752
			c0.044,0.006,0.084,0.025,0.13,0.025c0.042,0,0.077-0.02,0.118-0.025h3.752c0.044,0.006,0.084,0.025,0.13,0.025
			c0.042,0,0.077-0.02,0.118-0.025h3.752c0.044,0.006,0.084,0.025,0.13,0.025c0.042,0,0.077-0.02,0.118-0.025H46.87z M20,20.99
			v-1.95h2v1.95H20z M38,19.04v1.95h-2v-1.95H38z M34,19.04v1.95h-2v-1.95H34z M30,19.04v1.95h-2v-1.95H30z M26,20.99h-2v-1.95h2
			V20.99z M12,12.43c0-2.972,2.468-5.39,5.5-5.39S23,9.458,23,12.43v3.61c-0.553,0-1,0.448-1,1h-2c0-0.552-0.447-1-1-1s-1,0.448-1,1
			h-6V12.43z M12,19.04h6v1.95h-1c-0.553,0-1,0.448-1,1v92.05h-4V19.04z M8.087,116.627c0.379-0.379,0.881-0.587,1.413-0.587H16v1
			H7.769C7.855,116.891,7.962,116.752,8.087,116.627z M23,147.04c0,0.552-0.448,1-1,1c-0.267,0-0.514-0.103-0.713-0.307
			c-0.185-0.18-0.287-0.427-0.287-0.693v-1h2V147.04z M75,147.04c0,0.552-0.448,1-1,1c-0.267,0-0.514-0.103-0.713-0.307
			c-0.185-0.18-0.287-0.427-0.287-0.693v-1h2V147.04z M85,134.37c0,5.094-3.98,9.333-9.049,9.65c-0.204,0.01-0.417,0.02-0.621,0.02
			H75H20.67c-0.213,0-0.417-0.01-0.607-0.019C14.98,143.703,11,139.464,11,134.37v-15.33h5v13.9c0,2.261,1.839,4.1,4.1,4.1H44.9
			c2.261,0,4.1-1.839,4.1-4.1v-13.9h36V134.37z M86.5,116.04c0.739,0,1.386,0.402,1.731,1H49v-1H86.5z M46,20.99h-2v-1.95h2V20.99z
			 M92,19.04c-0.552,0-1-0.449-1-1s0.448-1,1-1s1,0.449,1,1S92.552,19.04,92,19.04z"/>
	</g>
</g>
</svg>
